<svg version="1.1" xmlns="http://www.w3.org/2000/svg" style="display: block;" viewBox="0 0 2048 2048" width="1183" height="1183" preserveAspectRatio="none">
<path transform="translate(0,0)" fill="rgb(66,76,90)" d="M 1822.05 768.5 C 1889.95 766.174 1886.26 823.064 1887.38 872.843 C 1890.01 875.33 1892.21 876.833 1895.16 878.965 C 1905.56 878.993 1943.2 880.66 1951.7 883.391 C 1958.81 885.73 1965.31 889.626 1970.72 894.794 C 1989.17 912.064 1988.26 926.619 1991.43 949.713 C 1993.83 967.248 1991.01 976.941 1991.12 993.494 L 1991.11 1145.85 L 1991.01 1251.48 C 1990.89 1262.98 1989.34 1275 1989.48 1286.09 L 1991.19 1370.5 C 1991.55 1383.81 1992.71 1396.65 1992.91 1410.22 C 1993.59 1458.43 1992.88 1506.21 1991.06 1554.31 C 1990.21 1576.77 1994.66 1601.35 1993.06 1624.57 C 1991.75 1643.55 1995.21 1663.96 1990.96 1682.9 C 1989.24 1691.61 1977.63 1707.24 1971.47 1713.95 C 1963.61 1721.77 1949.2 1730.02 1938.17 1732.06 C 1914.26 1734.97 1889.72 1734.86 1865.76 1734.88 L 1766.5 1734.88 L 1412.42 1734.77 C 1407.39 1741.14 1402.9 1750.67 1398.34 1756.32 C 1387.09 1770.23 1364.62 1783.78 1347.91 1789.44 C 1308.49 1802.82 1271.93 1801.76 1234.45 1783.75 C 1217.36 1774.6 1195.89 1761.7 1190.12 1742 C 1188.74 1737.3 1187.38 1736.33 1184.03 1733.06 C 1172.54 1735.43 1163.3 1734.88 1151.63 1734.98 C 1123.03 1735.22 1094.32 1734.63 1065.74 1735 L 735.191 1736.86 C 661.928 1737.14 617.454 1730.15 615.987 1646.92 C 614.538 1467.39 615.127 1287.85 617.754 1108.34 C 618.639 1050.86 617.034 992.339 618.558 934.828 C 618.771 926.814 632.607 903.309 639.317 896.611 C 659.365 876.598 692.419 880.892 718.627 880.915 L 725.363 873.349 C 725.429 863.801 726.272 853.186 726.633 843.531 C 727.005 833.59 726.013 817.919 728.277 808.83 C 730.229 801.185 734.086 794.159 739.487 788.407 C 745.243 782.331 753.501 775.584 761.688 773.549 C 771.955 770.996 783.973 771.962 794.501 771.951 C 810.652 771.934 827.084 771.401 843.207 772.311 C 862.759 773.414 881.78 776.164 901.182 778.327 C 916.293 780.011 931.59 779.99 946.721 781.63 C 965.462 783.66 983.916 787.001 1002.55 789.68 C 1010.58 790.834 1018.73 791.032 1026.74 792.314 C 1074.83 800.013 1138.14 814.391 1183.58 831.906 C 1207.33 841.058 1229.69 851.269 1251.43 864.525 C 1259.38 869.375 1298.7 898.195 1302.14 898.357 C 1306.74 898.574 1316.84 884.468 1321.54 881.442 C 1358.18 857.856 1396.45 839.03 1437.9 825.457 C 1505.61 803.289 1577.22 788.8 1648 781.094 C 1663.83 779.37 1679.68 779.617 1695.48 778.112 C 1705.47 777.161 1715.34 775.079 1725.33 774.18 C 1757.29 771.304 1789.98 769.516 1822.05 768.5 z M 1324.98 944.842 C 1323.98 979.697 1321.53 1010.37 1324.61 1045.45 C 1326.89 1071.32 1323.05 1101.37 1322.94 1127.37 C 1322.42 1139.01 1324.72 1151.78 1324.65 1163.62 C 1324.45 1196.27 1325.79 1229.25 1323.96 1261.85 C 1323.55 1269.08 1323 1275.88 1322.94 1283.11 L 1322.99 1389.5 C 1323.08 1399.02 1324.18 1408.52 1324.28 1418 C 1324.39 1427.81 1322.9 1437.8 1323.02 1447.66 C 1323.43 1482.08 1321.82 1517.2 1323.75 1551.54 C 1325.72 1586.48 1323.9 1621.08 1325.29 1655.98 C 1325.77 1656.75 1326.25 1657.52 1326.73 1658.3 C 1335 1662.22 1345.87 1652.79 1353.25 1648.09 C 1453.38 1595.69 1598.07 1569.56 1710.97 1561.91 C 1746.41 1559.52 1788.38 1563.02 1823.62 1560.95 C 1828.77 1557.62 1830.35 1556.51 1834.92 1552.36 C 1834.98 1538.51 1836.85 1521.14 1836.5 1508.9 C 1835.87 1486.45 1834.08 1465.09 1835.05 1442.15 C 1835.42 1433.2 1837.22 1422.41 1837.27 1414.47 C 1837.32 1404.59 1835.1 1394.32 1835.04 1383.13 L 1834.99 1245.34 C 1834.82 1190.25 1834.89 1135.32 1836.29 1080.28 C 1836.62 1067.13 1835.21 1053.79 1835.1 1040.63 C 1834.8 1001.9 1835.35 963.118 1834.86 924.388 C 1834.69 912.419 1834.76 900.449 1835.08 888.483 C 1835.37 877.918 1839.12 835.913 1835.04 828.075 C 1827.7 821.963 1812.16 823.96 1802.28 824.314 L 1800.5 824.605 C 1785.69 826.961 1768.94 825.955 1753.92 826.009 C 1726.85 826.105 1699.99 826.546 1673.18 830.5 C 1666.3 831.514 1657.84 830.595 1650.84 831.753 C 1638.71 833.859 1627.22 837.054 1614.78 839.019 C 1549.69 849.292 1481.61 865.483 1419.64 887.883 C 1392.64 897.646 1345.77 925.112 1324.98 944.842 z M 712.509 928.361 L 711.099 928.601 C 664.116 936.393 670.581 919.932 670.231 975.92 C 670.049 1005.01 671.172 1035.98 671.006 1065 L 672.165 1481.15 L 672.12 1594.2 C 672.088 1616.68 671.015 1641.33 673.923 1663.63 C 674.347 1666.88 679.242 1674.82 682.524 1676.81 C 698.706 1680.88 717.402 1679.06 734.217 1680.9 C 845.982 1681.25 957.736 1680.94 1069.5 1680.94 C 1079.18 1680.94 1088.88 1679.61 1098.54 1679.3 C 1112.92 1678.97 1127.35 1679.15 1141.75 1678.92 L 1143 1678.74 C 1151.57 1677.59 1172.87 1679.11 1177.6 1675.22 C 1168.21 1662.08 1003.43 1629.17 977.197 1624.51 C 934.351 1616.89 885.34 1614.26 841.052 1612.25 C 816.484 1611.14 785.085 1611.48 761.038 1606.66 C 751.253 1604.69 739.542 1594.67 733.963 1586.51 C 728.294 1578.23 723.964 1568.21 723.632 1557.98 C 722.702 1529.38 723.424 1499.78 723.312 1471.14 C 723.081 1411.95 723.34 1352.83 723.552 1293.65 C 723.586 1284.02 724.844 1274.54 724.996 1265.16 C 725.159 1255.1 723.092 1244.16 723.241 1233.76 L 724.972 935.165 C 720.891 931.778 717.955 928.609 712.509 928.361 z M 781.723 1560.89 C 804.346 1561.37 827.352 1561.57 849.875 1561.35 C 951.184 1560.35 1052.68 1581.12 1149.83 1608.48 C 1182.6 1617.71 1215.64 1635.7 1246.99 1648.84 C 1250.96 1650.52 1265.03 1661.08 1267.94 1660.37 C 1270.76 1657.9 1273.64 1656.35 1273.9 1652.51 C 1275.07 1635.49 1272.38 1618.51 1272.3 1601.55 C 1272.11 1565.87 1272.41 1530.18 1272.18 1494.5 C 1272.12 1484.36 1270.63 1474.15 1270.45 1464 C 1270.18 1399.73 1270.46 1335.32 1270.31 1271.05 L 1269.24 1066.39 C 1269.27 1054.28 1270.77 1042.63 1270.7 1029.98 C 1270.61 1012.41 1266.88 990.337 1269.82 972.914 C 1271.58 962.531 1274.85 964.638 1274.02 951.453 C 1262.8 939.242 1250.97 925.385 1236.76 916.645 C 1146.14 860.932 1037 843.811 933.168 830.305 C 920.91 828.71 891.473 823.667 880.97 824.191 C 849.568 825.759 813.027 819.37 782.713 820.961 C 778.494 824.869 776.166 827.425 776.037 833.517 C 775.445 862.505 776.01 891.5 775.845 920.5 C 775.784 931.401 773.92 942.503 774.058 953.319 C 774.666 1000.67 772.477 1048.35 775.542 1095.6 C 776.369 1108.34 777.039 1120.91 777.58 1133.64 C 778.678 1271.35 773.895 1408.86 776.107 1546.61 C 776.188 1551.63 779.185 1556.77 781.723 1560.89 z M 1894.44 927.931 C 1891.14 930.55 1889.21 932.058 1889.04 936.623 C 1886.84 997.632 1894.43 1058.03 1887.62 1118.92 C 1886.83 1126.02 1888.98 1147.14 1889 1156 L 1889.04 1385.3 C 1888.98 1400.24 1885 1418.71 1885.61 1431.51 C 1887.97 1461.24 1886.8 1491.72 1887.22 1521.44 C 1887.6 1547.75 1889.67 1578.13 1866.47 1596.35 C 1842.38 1615.27 1794.03 1611.9 1764.41 1611.89 C 1741.21 1611.72 1718.01 1612.38 1694.86 1613.86 C 1622.53 1618.4 1550.88 1635.25 1481.24 1654.21 C 1459.95 1660.01 1438.54 1661.82 1421.51 1676.54 L 1434.06 1681.74 C 1441.51 1679.96 1465.18 1680.91 1473.95 1680.95 L 1788.9 1681.06 C 1815.4 1681.06 1841.47 1681.12 1868.42 1681.14 C 1887.01 1680.6 1917.8 1688.7 1932.94 1675.66 C 1941.87 1667.97 1940.9 1641.98 1941.27 1631.04 C 1941.71 1621.1 1943.41 1611.24 1943.15 1601.26 C 1941.04 1517.77 1938.22 1433.45 1942.87 1350 C 1944.63 1318.63 1943.68 1297.26 1940.37 1265.88 C 1938.32 1246.38 1941.64 1219.47 1941.6 1199.57 L 1942.35 1029.76 L 1942.4 974.614 C 1942.39 964.071 1944.83 941.83 1936.67 935.286 C 1926.13 926.833 1905.84 932.887 1894.44 927.931 z"/>
<path transform="translate(0,0)" fill="rgb(66,76,90)" d="M 1024.32 242.392 C 1104.09 241.289 1196.94 255.676 1274.92 273.637 C 1296.18 278.532 1405.91 313.864 1415.62 328.012 C 1418.29 340.144 1414.22 353.807 1399.2 350.869 C 1384.39 347.972 1370.32 339.917 1356.01 335.713 C 1336.71 330.04 1318.3 322.464 1299.14 316.429 C 1273.2 308.41 1246.9 301.589 1220.33 295.989 C 1035.72 255.989 848.481 275.285 672.983 342.736 C 656.006 349.261 640.359 357.753 623.9 365.42 C 432.852 454.24 276.093 603.101 177.524 789.306 C 140.582 860.36 112.857 935.837 95.0208 1013.91 C 87.5227 1045.56 81.7919 1075.56 78.0839 1107.83 C 77.3002 1114.65 74.3983 1124.87 66.5194 1125.79 C 49.8661 1127.71 36.653 1115.73 42.2771 1098.62 C 49.2172 1082.58 51.3123 1066.98 54.5072 1049.9 C 61.1056 1011.63 69.7275 973.786 80.8882 936.553 C 117.982 816.662 176.954 704.676 254.821 606.256 C 349.471 488.657 489.344 383.104 628.52 323.945 C 705.957 291.821 786.915 268.95 869.714 255.806 C 879.739 254.176 889.814 253.925 898.907 252.454 C 926.226 248.036 953.116 246.494 980.697 244.481 C 995.839 243.377 1008.61 244.094 1024.32 242.392 z"/>
<path transform="translate(0,0)" fill="rgb(66,76,90)" d="M 957.597 417.399 C 970.608 415.59 995.482 417.58 1009.28 417.057 C 1061.2 415.089 1121.86 419.432 1172.34 431.397 C 1203.98 438.896 1321.88 472.666 1339.85 494.337 C 1342.09 501.619 1339.12 515.631 1330.24 512.768 C 1284.48 498.015 1239.12 483.382 1192.27 471.534 C 1074.92 441.857 942.823 441.701 825.894 473.164 C 791.992 482.286 756.893 492.433 725.455 505.511 C 662.074 532.543 602.43 567.607 547.988 609.842 C 534.706 620.229 520.714 633.977 508.299 645.601 C 499.251 654.071 487.851 663.01 479.504 671.827 C 440.419 713.107 398.07 765.07 370.216 814.477 C 328.83 884.313 299.203 960.476 282.521 1039.92 C 277.826 1061.47 272.747 1083.15 272.322 1105.28 C 272.024 1120.85 270.533 1127.88 255.229 1132.3 C 247.2 1130.81 244.54 1130.02 237.531 1126.21 C 239.833 1109.6 239.826 1093.49 242.625 1076.22 C 276.698 865.992 380.094 688.931 553.371 564.343 C 657.547 488.115 779.213 439.296 907.185 422.376 C 922.246 420.266 941.899 419.092 957.597 417.399 z"/>
<path transform="translate(0,0)" fill="rgb(66,76,90)" d="M 957.63 571.343 C 961 570.73 993.811 570.942 998.938 571.115 C 1015.01 571.864 1033.58 569.889 1049.37 571.606 C 1131.67 580.614 1216.09 601.301 1286.6 646.143 C 1302.39 656.183 1312.63 660.242 1318 679.68 C 1313.4 688.993 1308.32 697.548 1296.15 693.948 C 1280.16 689.219 1266.06 676.094 1251.28 668.499 C 1231.77 658.471 1212.84 647.342 1192.95 638.117 C 1185.03 634.531 1166.45 629.086 1157.39 626.276 C 1075.68 601.05 989.044 596.193 905.027 612.128 C 765.325 637.371 641.319 716.947 560.168 833.431 C 553.822 840.931 547.975 850.265 542.529 858.653 C 500.652 923.153 474.491 999.261 454.275 1073.03 C 449.265 1091.31 450.618 1109.71 446.035 1127.25 C 444.751 1132.16 434.852 1136.96 430.05 1138.86 C 427.141 1138.41 418.394 1136.87 416.521 1134.97 C 402.604 1119.81 415.905 1088.47 419.283 1070.88 C 430.204 1013.99 451.018 963.251 474.184 910.999 C 556.665 724.958 732.29 598.176 933.777 573.985 C 941.688 573.035 949.474 572.725 957.63 571.343 z"/>
</svg>