<svg xmlns="http://www.w3.org/2000/svg" version="1.1" viewBox="-5.0 -10.0 110.0 135.0" width="800px" height="800px">
  <path d="m75 14.062c3.0195 0 5.4688 2.4492 5.4688 5.4688v57.031c0 3.0195-2.4492 5.4688-5.4688 5.4688h-43.75c-0.46094 0-0.90625-0.058594-1.3281-0.16406-0.91016 1.1445-1.6406 2.3984-2.2305 3.7344-1.0547 2.2461-4.3594 2.3945-5.3867 0-1.3867-3.1641-3.6992-5.8047-6.6406-7.6133l-1.8203-1.0898c-2.0234-1.2148-2.0234-4.1445 0-5.3594l1.8203-1.0898c2.9414-1.7969 5.2852-4.4375 6.6406-7.6133 0.625-1.3203 2.0312-2.0625 3.4766-1.6758v-31.73c0-1.4141 0.54688-2.7734 1.5273-3.7891l9.5117-9.8984c1.0625-1.0469 2.4414-1.6797 3.9453-1.6797zm-50 53.676c-1.6641 2.6016-3.8867 4.8203-6.5195 6.4805 2.6328 1.6602 4.8555 3.8789 6.5195 6.4844 1.6641-2.6055 3.8867-4.8242 6.5195-6.4844-2.6328-1.6602-4.8555-3.8789-6.5195-6.4805zm15.766-48.988c-0.21875 0-0.41016 0.09375-0.5625 0.23828l-9.5156 9.8984c-0.14062 0.14844-0.21875 0.33984-0.21875 0.54297v37.797c1.1094 1.2578 2.4102 2.3477 3.8672 3.2227l2.0039 1.207c1.7773 1.2344 1.7773 3.8906-0.003906 5.125l-0.92578 0.5625h39.59c0.42969 0 0.78125-0.35156 0.78125-0.78125v-57.031c0-0.42969-0.35156-0.78125-0.78125-0.78125zm24.078 42.969c1.293 0 2.3438 1.0508 2.3438 2.3438s-1.0508 2.3438-2.3438 2.3438h-24.219c-1.293 0-2.3438-1.0508-2.3438-2.3438s1.0508-2.3438 2.3438-2.3438zm0-15.625c1.293 0 2.3438 1.0508 2.3438 2.3438s-1.0508 2.3438-2.3438 2.3438h-24.219c-1.293 0-2.3438-1.0508-2.3438-2.3438s1.0508-2.3438 2.3438-2.3438zm0-15.625c1.293 0 2.3438 1.0508 2.3438 2.3438s-1.0508 2.3438-2.3438 2.3438h-17.188c-1.293 0-2.3438-1.0508-2.3438-2.3438s1.0508-2.3438 2.3438-2.3438z"/>
</svg>